<?xml version="1.0" standalone="no"?>
<!DOCTYPE svg PUBLIC "-//W3C//DTD SVG 20010904//EN"
 "http://www.w3.org/TR/2001/REC-SVG-20010904/DTD/svg10.dtd">
<svg version="1.0" xmlns="http://www.w3.org/2000/svg"
 width="1879.000000pt" height="1879.000000pt" viewBox="0 0 1879.000000 1879.000000"
 preserveAspectRatio="xMidYMid meet">
<metadata>
Created by potrace 1.14, written by Peter Selinger 2001-2017
</metadata>
<g transform="translate(0.000000,1879.000000) scale(0.100000,-0.100000)"
fill="#000000" stroke="none">
<path d="M17162 15212 c-13 -2 -54 -16 -90 -32 -77 -33 -76 -31 -88 -195 -12
-177 -12 -189 0 -245 8 -37 11 -166 10 -405 -1 -192 -3 -631 -4 -975 -2 -618
-5 -697 -36 -795 -47 -151 -112 -262 -231 -400 -259 -301 -342 -442 -433 -739
-17 -55 -33 -113 -36 -129 -3 -17 -6 -33 -8 -36 -6 -10 -16 -197 -17 -321 0
-63 -3 -123 -6 -132 -3 -14 -19 -6 -81 45 -123 101 -211 163 -488 348 -335
224 -474 313 -554 357 -19 11 -53 30 -75 42 -22 13 -59 33 -82 46 -23 13 -93
54 -155 90 -129 76 -179 103 -518 276 -421 216 -612 311 -715 357 -55 25 -136
61 -180 82 -44 20 -100 46 -125 57 -25 11 -238 97 -475 192 -236 94 -443 178
-460 185 -58 25 -122 48 -320 115 -110 37 -207 70 -215 73 -102 38 -483 157
-680 212 -106 29 -103 28 -425 121 -185 53 -533 137 -890 214 -22 4 -51 11
-64 14 -164 38 -486 106 -521 111 -25 3 -67 10 -95 15 -27 5 -97 16 -155 25
-58 9 -116 18 -130 21 -14 2 -41 7 -60 10 -19 2 -46 7 -60 10 -42 7 -63 11
-115 19 -69 10 -83 12 -141 19 -28 4 -59 8 -70 10 -10 2 -50 7 -88 10 -38 4
-72 9 -75 10 -3 2 -33 7 -66 10 -33 3 -70 8 -82 10 -12 3 -50 7 -85 11 -35 3
-74 8 -88 10 -14 3 -50 7 -80 10 -30 3 -73 7 -95 10 -193 23 -270 30 -480 40
-96 5 -258 13 -365 20 -36 2 -128 7 -205 12 -255 15 -1140 6 -1236 -12 -8 -2
-87 -6 -175 -10 -87 -4 -179 -9 -204 -10 -133 -10 -301 -23 -375 -31 -22 -2
-67 -6 -100 -9 -93 -9 -228 -25 -254 -30 -9 -2 -44 -7 -76 -11 -33 -4 -62 -8
-65 -9 -3 -1 -30 -5 -60 -9 -30 -5 -64 -10 -75 -13 -11 -2 -70 -13 -131 -24
-61 -10 -192 -37 -290 -59 -99 -22 -188 -42 -199 -44 -11 -2 -100 -25 -198
-51 -99 -26 -186 -48 -195 -50 -46 -9 -425 -139 -552 -189 -80 -32 -158 -62
-175 -68 -16 -6 -61 -26 -100 -44 -38 -17 -92 -42 -120 -54 -118 -53 -318
-153 -415 -208 -190 -107 -433 -262 -460 -292 -3 -3 -36 -28 -74 -55 -142
-100 -389 -334 -541 -514 -153 -178 -328 -475 -427 -719 -64 -160 -145 -460
-145 -542 0 -8 -3 -49 -7 -90 -9 -102 -10 -465 -2 -570 6 -84 10 -116 20 -148
3 -9 7 -28 10 -42 2 -14 11 -59 20 -100 8 -41 17 -86 20 -100 7 -41 96 -322
116 -365 9 -22 55 -125 100 -230 104 -241 105 -242 289 -540 147 -238 286
-426 517 -702 74 -87 297 -326 454 -484 130 -131 341 -324 485 -444 33 -28 62
-52 65 -55 9 -11 204 -166 295 -235 50 -38 117 -90 150 -115 261 -200 777
-542 1068 -709 23 -13 85 -52 137 -86 52 -35 136 -84 185 -110 50 -25 97 -51
105 -56 135 -81 999 -515 1135 -569 42 -17 321 -133 350 -146 223 -98 761
-314 958 -385 139 -50 315 -113 392 -141 121 -43 369 -123 415 -133 8 -2 92
-27 185 -55 94 -29 199 -61 235 -71 62 -19 247 -66 480 -123 58 -15 119 -30
135 -35 23 -8 229 -59 300 -76 6 -1 21 -5 35 -8 38 -9 202 -45 230 -51 71 -13
134 -27 218 -45 51 -12 109 -24 129 -27 20 -3 47 -10 61 -15 14 -5 27 -7 29
-5 3 3 15 1 28 -4 13 -5 94 -21 182 -35 87 -14 169 -28 183 -31 14 -2 41 -7
60 -10 19 -2 58 -9 85 -14 28 -5 65 -12 83 -15 38 -6 80 -13 107 -19 11 -2 54
-7 95 -11 41 -3 82 -8 90 -10 18 -5 26 -6 340 -46 135 -17 259 -33 275 -35 48
-7 113 -12 220 -19 55 -4 123 -9 150 -11 28 -2 84 -6 125 -8 188 -13 247 -17
280 -21 217 -27 1557 -27 1885 0 28 2 84 7 125 10 41 4 89 8 105 9 17 2 62 6
100 10 39 4 81 9 95 11 14 2 54 7 90 10 36 3 81 7 100 10 56 7 249 36 268 40
9 1 82 13 162 25 80 12 156 23 170 26 14 2 43 7 65 10 83 11 56 6 360 80 127
30 241 58 255 60 14 3 52 12 85 21 33 8 71 17 85 20 14 2 178 55 365 117 407
136 728 270 935 390 47 27 105 60 130 74 170 94 499 312 588 389 36 32 78 68
92 80 14 12 63 58 110 103 46 44 87 80 90 81 3 0 52 2 110 4 120 3 249 14 262
21 4 3 34 12 65 20 79 20 150 59 190 103 60 65 97 170 97 271 -1 42 -14 328
-19 385 -14 175 -16 347 -4 382 25 78 66 310 69 392 10 320 2 533 -25 691 -8
47 -17 99 -20 115 -12 69 -90 324 -136 448 -54 141 -52 127 -65 422 -11 223
-8 409 11 890 7 180 37 246 190 420 74 83 97 126 118 221 33 142 35 228 23
754 -7 313 -11 437 -20 620 -3 58 -8 150 -11 205 -8 158 -28 311 -49 373 -8
24 -22 30 -23 10 -8 -120 -23 -685 -28 -1073 -7 -494 -11 -531 -70 -609 -13
-18 -15 -17 -42 14 -15 18 -32 40 -38 49 -5 9 -10 161 -11 361 -2 370 -13
1032 -19 1167 -2 45 -10 94 -18 109 l-14 28 -8 -25 c-11 -32 -13 -57 -20 -254
-3 -93 -8 -193 -10 -220 -2 -28 -6 -127 -10 -220 -3 -94 -8 -222 -11 -285 -2
-63 -7 -200 -9 -305 -6 -277 -12 -332 -42 -383 -17 -30 -28 -41 -35 -34 -23
23 -44 199 -53 437 -4 106 -12 311 -21 485 -2 58 -7 161 -9 230 -3 69 -7 154
-10 190 -3 36 -7 97 -10 135 -9 124 -16 183 -25 212 l-8 28 -16 -38 c-15 -34
-17 -102 -20 -585 -2 -301 -5 -660 -6 -798 -1 -264 -7 -298 -46 -300 -30 -2
-50 16 -69 61 -28 68 -30 88 -40 475 -7 296 -16 584 -20 690 -2 47 -7 173 -10
280 -9 267 -13 268 -59 16 -11 -63 -16 -116 -21 -251 -4 -77 -8 -156 -10 -175
-11 -107 -22 -1212 -12 -1270 2 -14 7 -45 12 -70 4 -25 10 -49 14 -55 3 -5 6
-12 6 -15 4 -31 34 -92 59 -120 158 -174 240 -310 250 -420 4 -36 9 -154 11
-264 2 -109 7 -253 10 -319 7 -142 13 -145 -100 43 -57 94 -108 171 -197 295
-30 43 -334 418 -363 450 -20 22 -76 83 -123 135 -48 52 -118 126 -157 164
-107 104 -397 382 -421 403 -11 10 -49 43 -84 73 -34 30 -68 60 -74 65 -6 6
-36 30 -66 54 -54 43 -55 45 -61 105 -7 74 -3 537 5 586 34 214 63 330 120
490 50 140 129 283 231 420 130 173 204 371 220 587 5 62 7 1811 3 2098 -1 66
0 149 3 184 l4 65 70 29 c69 28 74 28 285 31 l215 3 65 -31 65 -31 10 -65 c6
-36 9 -123 7 -195 -6 -192 -3 -1993 3 -2113 7 -154 51 -295 141 -456 l26 -47
104 3 c57 1 104 4 104 5 0 1 -18 26 -40 55 -49 63 -167 298 -176 348 -3 19
-11 69 -19 110 -7 41 -13 118 -13 170 0 52 -4 365 -7 695 -13 1114 -13 1082 2
1163 14 75 13 219 -3 367 -7 65 -10 68 -89 112 l-50 27 -315 1 c-173 0 -326
-1 -338 -3z"/>
</g>
</svg>
